<?xml version="1.0" encoding="UTF-8"?>
<!DOCTYPE svg PUBLIC "-//W3C//DTD SVG 1.1//EN" "http://www.w3.org/Graphics/SVG/1.1/DTD/svg11.dtd">
<svg xmlns="http://www.w3.org/2000/svg" version="1.1" width="20px" height="20px" style="shape-rendering:geometricPrecision; text-rendering:geometricPrecision; image-rendering:optimizeQuality; fill-rule:evenodd; clip-rule:evenodd" xmlns:xlink="http://www.w3.org/1999/xlink">
<g><path style="opacity:0.679" fill="#000000" d="M 316.5,1.5 C 321.5,0.5 323.5,2.5 322.5,7.5C 316.591,8.92557 314.591,6.92557 316.5,1.5 Z"/></g>
<g><path style="opacity:0.566" fill="#000000" d="M 288.5,3.5 C 294.016,3.47337 295.349,5.64003 292.5,10C 286.339,10.878 285.006,8.71131 288.5,3.5 Z"/></g>
<g><path style="opacity:0.697" fill="#000000" d="M 354.5,6.5 C 358.603,5.7691 362.103,6.7691 365,9.5C 366.217,15.101 366.717,20.7676 366.5,26.5C 364.5,26.5 362.5,26.5 360.5,26.5C 360.494,21.7847 359.994,17.118 359,12.5C 357.518,10.2189 355.851,10.2189 354,12.5C 353.749,17.5007 353.916,22.5007 354.5,27.5C 352.5,27.5 350.5,27.5 348.5,27.5C 347.724,20.8517 347.057,14.185 346.5,7.5C 349.385,7.8064 352.052,7.47307 354.5,6.5 Z"/></g>
<g><path style="opacity:0.678" fill="#000000" d="M 228.5,8.5 C 230.5,8.5 232.5,8.5 234.5,8.5C 234.401,11.6727 235.068,14.6727 236.5,17.5C 241.677,15.2508 245.511,16.5841 248,21.5C 248.39,25.5144 248.89,29.5144 249.5,33.5C 248.916,36.8004 246.916,38.1337 243.5,37.5C 242.851,32.8642 242.351,28.1976 242,23.5C 239.506,20.8245 237.34,21.1578 235.5,24.5C 236.137,28.6996 236.804,32.8663 237.5,37C 235.323,38.2022 232.989,38.7022 230.5,38.5C 229.833,28.5 229.167,18.5 228.5,8.5 Z"/></g>
<g><path style="opacity:0.682" fill="#000000" d="M 330.5,8.5 C 333.85,8.33499 337.183,8.50166 340.5,9C 341.333,9.83333 342.167,10.6667 343,11.5C 344.281,17.0727 345.114,22.7394 345.5,28.5C 343.409,28.6816 341.409,28.3482 339.5,27.5C 335.633,30.1327 331.799,30.1327 328,27.5C 326,25.1667 326,22.8333 328,20.5C 331.189,18.5937 334.356,16.7603 337.5,15C 337.387,13.7202 336.72,12.8869 335.5,12.5C 333.043,14.2249 330.377,14.7249 327.5,14C 326.549,13.2825 326.383,12.4491 327,11.5C 328.518,10.8366 329.685,9.83663 330.5,8.5 Z M 336.5,20.5 C 338.225,20.8425 338.725,21.8425 338,23.5C 334.779,26.7282 333.279,26.0615 333.5,21.5C 334.791,21.7373 335.791,21.404 336.5,20.5 Z"/></g>
<g><path style="opacity:0.655" fill="#000000" d="M 318.5,9.5 C 319.833,9.5 321.167,9.5 322.5,9.5C 323.222,16.4922 323.888,23.4922 324.5,30.5C 322.208,30.7564 320.041,30.4231 318,29.5C 317.638,24.3189 317.138,19.1522 316.5,14C 316.759,12.2134 317.425,10.7134 318.5,9.5 Z"/></g>
<g><path style="opacity:0.723" fill="#000000" d="M 212.5,10.5 C 225.465,9.61405 229.465,15.114 224.5,27C 221.13,29.0778 217.463,29.9111 213.5,29.5C 213.82,32.8984 213.487,36.2317 212.5,39.5C 210.629,40.767 208.796,40.767 207,39.5C 206.256,30.1504 205.423,20.8171 204.5,11.5C 207.385,11.8064 210.052,11.4731 212.5,10.5 Z M 211.5,15.5 C 217.496,14.5081 220.163,16.8414 219.5,22.5C 217.51,23.8732 215.343,24.8732 213,25.5C 212.545,22.1464 212.045,18.8131 211.5,15.5 Z"/></g>
<g><path style="opacity:0.674" fill="#000000" d="M 304.5,10.5 C 306.857,10.3367 309.19,10.5034 311.5,11C 315.327,12.4901 315.494,14.3235 312,16.5C 307.329,14.2487 304.496,15.582 303.5,20.5C 304.219,27.5139 307.552,29.1806 313.5,25.5C 317.342,27.6071 317.008,29.4405 312.5,31C 300.477,33.4845 295.644,28.6512 298,16.5C 299.436,13.5581 301.603,11.5581 304.5,10.5 Z"/></g>
<g><path style="opacity:0.656" fill="#000000" d="M 287.5,12.5 C 289.833,12.5 292.167,12.5 294.5,12.5C 294.391,17.8598 294.724,23.1931 295.5,28.5C 295.513,32.5013 293.513,34.168 289.5,33.5C 288.888,26.4922 288.222,19.4922 287.5,12.5 Z"/></g>
<g><path style="opacity:0.678" fill="#000000" d="M 273.5,13.5 C 277.637,13.1463 281.637,13.6463 285.5,15C 284.154,18.5047 281.82,19.3381 278.5,17.5C 277.263,17.5565 276.263,18.0565 275.5,19C 278.274,20.7812 281.274,22.1145 284.5,23C 287.568,27.7242 286.568,31.3909 281.5,34C 278.833,34.6667 276.167,34.6667 273.5,34C 269.426,31.9878 269.593,30.4878 274,29.5C 276.674,31.2485 278.84,30.7485 280.5,28C 277.618,26.4804 274.618,25.1471 271.5,24C 268.936,19.8642 269.603,16.3642 273.5,13.5 Z"/></g>
<g><path style="opacity:0.639" fill="#000000" d="M 263.5,14.5 C 265.604,14.2011 267.604,14.5344 269.5,15.5C 266.5,24.1667 263.5,32.8333 260.5,41.5C 258.604,42.4656 256.604,42.7989 254.5,42.5C 254.804,39.4208 255.804,36.5875 257.5,34C 254.04,28.2481 250.707,22.4147 247.5,16.5C 249.765,15.3526 252.098,15.1859 254.5,16C 256.207,19.2485 258.04,22.4151 260,25.5C 260.876,21.7076 262.042,18.0409 263.5,14.5 Z"/></g>
<g><path style="opacity:0.7" fill="#000000" d="M 147.5,15.5 C 152.177,15.059 156.177,16.3923 159.5,19.5C 158.73,21.2718 157.397,22.2718 155.5,22.5C 144.142,19.8726 139.976,24.2059 143,35.5C 147.321,40.4498 151.988,40.7832 157,36.5C 161.692,39.1433 161.525,41.6433 156.5,44C 143.794,47.995 136.794,43.495 135.5,30.5C 135.131,21.88 139.131,16.88 147.5,15.5 Z"/></g>
<g><path style="opacity:0.674" fill="#000000" d="M 86.5,20.5 C 88.1667,20.5 89.8333,20.5 91.5,20.5C 91.7038,23.5176 92.0371,26.5176 92.5,29.5C 96.8053,27.6618 100.639,28.3284 104,31.5C 105.524,37.375 106.357,43.375 106.5,49.5C 104.5,49.5 102.5,49.5 100.5,49.5C 99.8511,44.8642 99.3511,40.1976 99,35.5C 96.4262,32.7406 94.2595,33.074 92.5,36.5C 93.1667,40.8333 93.8333,45.1667 94.5,49.5C 92.2573,50.4742 89.924,50.8076 87.5,50.5C 87.1096,42.1487 86.443,33.8154 85.5,25.5C 85.5916,23.7422 85.925,22.0755 86.5,20.5 Z"/></g>
<g><path style="opacity:0.654" fill="#000000" d="M 190.5,20.5 C 192.527,20.3379 194.527,20.5045 196.5,21C 195.594,22.6995 195.261,24.5328 195.5,26.5C 192.136,25.7893 189.803,26.956 188.5,30C 189.626,33.7436 189.793,37.577 189,41.5C 187.301,42.4061 185.467,42.7394 183.5,42.5C 183.163,35.7825 182.496,29.1158 181.5,22.5C 183.695,21.2309 185.861,21.2309 188,22.5C 188.995,21.9341 189.828,21.2674 190.5,20.5 Z"/></g>
<g><path style="opacity:0.718" fill="#000000" d="M 70.5,22.5 C 75.1667,22.5 79.8333,22.5 84.5,22.5C 84.5,24.1667 84.5,25.8333 84.5,27.5C 81.8333,27.5 79.1667,27.5 76.5,27.5C 76.6718,35.2296 77.3385,42.8962 78.5,50.5C 76.2573,51.4742 73.924,51.8076 71.5,51.5C 70.7783,43.8396 70.1116,36.1729 69.5,28.5C 66.5,28.5 63.5,28.5 60.5,28.5C 60.5,26.8333 60.5,25.1667 60.5,23.5C 64.0419,23.8128 67.3752,23.4794 70.5,22.5 Z"/></g>
<g><path style="opacity:0.69" fill="#000000" d="M 166.5,22.5 C 170.584,22.0431 174.417,22.7098 178,24.5C 179.524,30.375 180.357,36.375 180.5,42.5C 178.533,42.7394 176.699,42.4061 175,41.5C 170.933,44.0988 166.933,44.0988 163,41.5C 162.333,39.5 162.333,37.5 163,35.5C 166.171,32.7295 169.671,30.7295 173.5,29.5C 172.855,28.354 172.022,27.354 171,26.5C 168.769,28.3769 166.269,29.2102 163.5,29C 162.483,27.9505 162.316,26.7839 163,25.5C 164.145,24.3636 165.312,23.3636 166.5,22.5 Z M 172.5,34.5 C 173.918,37.9342 172.585,39.6008 168.5,39.5C 168.408,36.6 169.741,34.9333 172.5,34.5 Z"/></g>
<g><path style="opacity:0.682" fill="#000000" d="M 115.5,26.5 C 122.705,26.0906 126.705,29.4239 127.5,36.5C 123.384,38.2806 119.051,38.9473 114.5,38.5C 114.297,40.3904 114.963,41.8904 116.5,43C 119.305,43.4415 121.972,42.9415 124.5,41.5C 127.975,42.2855 128.308,43.7855 125.5,46C 113.28,50.7808 107.447,46.6141 108,33.5C 109.211,29.6664 111.711,27.333 115.5,26.5 Z M 115.5,31.5 C 117.665,31.1159 119.332,31.7826 120.5,33.5C 118.209,34.5905 115.876,35.0905 113.5,35C 114.305,33.8873 114.972,32.7206 115.5,31.5 Z"/></g>
<g><path style="opacity:0.962" fill="#ff0e02" d="M 416.5,46.5 C 421.599,46.1746 426.599,46.6746 431.5,48C 434.695,49.6946 437.028,52.1946 438.5,55.5C 440.045,56.4519 441.712,56.7852 443.5,56.5C 444.011,59.0284 444.678,61.5284 445.5,64C 442.17,69.3216 442.837,73.9882 447.5,78C 440.588,81.3723 433.755,84.8723 427,88.5C 424.324,76.8217 416.99,70.4884 405,69.5C 390.718,70.7825 383.218,78.6158 382.5,93C 383.67,97.3377 385.336,101.504 387.5,105.5C 353.93,122.2 320.097,138.534 286,154.5C 279.958,138.371 268.792,133.205 252.5,139C 241.298,147.34 238.298,158.006 243.5,171C 235.034,177.046 230.201,174.88 229,164.5C 227,165.833 225,165.833 223,164.5C 221.697,162.06 220.53,159.56 219.5,157C 220.217,155.469 221.217,154.136 222.5,153C 220.315,146.799 217.482,140.965 214,135.5C 213.547,128.808 213.881,122.141 215,115.5C 215.421,111.355 216.588,107.522 218.5,104C 247.818,84.0059 279.151,67.6726 312.5,55C 322.119,53.9032 331.785,53.4032 341.5,53.5C 353.391,53.3272 365.224,53.9939 377,55.5C 390.225,52.1585 403.392,49.1585 416.5,46.5 Z M 319.5,60.5 C 332.325,60.4989 344.825,62.4989 357,66.5C 360.333,68.1667 360.333,69.8333 357,71.5C 341.775,77.8623 326.609,84.3623 311.5,91C 308.923,92.2504 306.257,92.5837 303.5,92C 298.257,85.5122 293.257,78.8456 288.5,72C 298.543,66.9604 308.877,63.1271 319.5,60.5 Z M 281.5,74.5 C 283.592,74.5614 285.092,75.5614 286,77.5C 289.085,82.672 292.419,87.672 296,92.5C 296.982,93.7589 297.315,95.0922 297,96.5C 280.777,103.527 264.277,109.86 247.5,115.5C 242.437,113.732 240.103,110.066 240.5,104.5C 240.242,99.5163 242.242,95.683 246.5,93C 258.545,87.3138 270.211,81.1471 281.5,74.5 Z"/></g>
<g><path style="opacity:0.951" fill="#fe0000" d="M 16.5,52.5 C 43.7606,54.6068 70.2606,60.2735 96,69.5C 108.2,65.9334 120.366,62.2667 132.5,58.5C 153.658,69.2451 174.658,80.2451 195.5,91.5C 200.4,107.935 205.067,124.435 209.5,141C 202.882,154.404 195.882,167.571 188.5,180.5C 183.341,178.088 178.341,175.421 173.5,172.5C 178.658,159.115 175.658,147.948 164.5,139C 149.468,132.383 136.968,135.549 127,148.5C 105.103,137.135 83.2701,125.635 61.5,114C 67.0668,99.4596 63.4001,87.7929 50.5,79C 36.0887,74.0584 24.2553,77.5584 15,89.5C 10.6131,87.7235 6.44645,85.5568 2.5,83C 3.17246,71.1456 7.83912,60.979 16.5,52.5 Z M 129.5,66.5 C 130.873,66.3433 132.207,66.51 133.5,67C 142.994,71.913 152.328,77.0796 161.5,82.5C 157,90.8333 152.5,99.1667 148,107.5C 129.912,97.8725 111.745,88.3725 93.5,79C 105.71,75.098 117.71,70.9313 129.5,66.5 Z M 168.5,85.5 C 175.545,88.7725 182.378,92.4392 189,96.5C 192.981,108.744 195.814,121.077 197.5,133.5C 183.167,126 168.833,118.5 154.5,111C 159.306,102.553 163.973,94.0531 168.5,85.5 Z"/></g>
<g><path style="opacity:0.956" fill="#ff0e02" d="M 402.5,71.5 C 415.853,71.0038 423.52,77.3371 425.5,90.5C 424.23,102.937 417.396,109.937 405,111.5C 386.445,107.581 381.112,96.9144 389,79.5C 392.897,75.6414 397.397,72.9747 402.5,71.5 Z"/></g>
<g><path style="opacity:0.957" fill="#fe0000" d="M 33.5,81.5 C 54.1413,81.9746 62.3079,92.3079 58,112.5C 50.48,124.118 40.3134,127.284 27.5,122C 14.643,111.666 13.3097,99.9989 23.5,87C 26.7667,84.8703 30.1,83.037 33.5,81.5 Z"/></g>
<g><path style="opacity:0.959" fill="#ff0e02" d="M 260.5,139.5 C 272.05,139.226 279.55,144.559 283,155.5C 284.233,167.529 279.067,175.362 267.5,179C 256.127,180.566 248.293,176.066 244,165.5C 242.011,152.004 247.511,143.337 260.5,139.5 Z"/></g>
<g><path style="opacity:0.956" fill="#fe0000" d="M 145.5,140.5 C 163.288,139.457 172.122,147.79 172,165.5C 168.306,178.94 159.473,184.773 145.5,183C 132.698,178.236 127.531,169.069 130,155.5C 133.106,148.225 138.272,143.225 145.5,140.5 Z"/></g>
</svg>
